HIERARCHY
ROOT Hips
{
	OFFSET 0.00 0.00 0.00
	CHANNELS 6 Xposition Yposition Zposition Xrotation Yrotation Zrotation
	JOINT RightUpLeg
	{
		OFFSET -3.76699 0.00000 0.00000
		CHANNELS 3 Xrotation Yrotation Zrotation
		JOINT RightLeg
		{
			OFFSET 0.00000 -18.01768 0.00000
			CHANNELS 3 Xrotation Yrotation Zrotation
			JOINT RightFoot
			{
				OFFSET 0.00000 -16.88108 0.00000
				CHANNELS 3 Xrotation Yrotation Zrotation
				JOINT RightToeBase
				{
					OFFSET 0.00000 -1.49359 5.57418
					CHANNELS 3 Xrotation Yrotation Zrotation
					End Site
					{
						OFFSET 0.00000 0.00000 2.95275
					}
				}
			}
		}
	}
	JOINT LeftUpLeg
	{
		OFFSET 3.76699 0.00000 0.00000
		CHANNELS 3 Xrotation Yrotation Zrotation
		JOINT LeftLeg
		{
			OFFSET 0.00000 -18.01768 0.00000
			CHANNELS 3 Xrotation Yrotation Zrotation
			JOINT LeftFoot
			{
				OFFSET 0.00000 -16.88108 0.00000
				CHANNELS 3 Xrotation Yrotation Zrotation
				JOINT LeftToeBase
				{
					OFFSET 0.00000 -1.49359 5.57418
					CHANNELS 3 Xrotation Yrotation Zrotation
					End Site
					{
						OFFSET 0.00000 0.00000 2.95275
					}
				}
			}
		}
	}
	JOINT Spine
	{
		OFFSET 0.00000 7.77970 0.00000
		CHANNELS 3 Xrotation Yrotation Zrotation
		JOINT RightShoulder
		{
			OFFSET 0.00000 10.94176 0.00000
			CHANNELS 3 Xrotation Yrotation Zrotation
			JOINT RightArm
			{
				OFFSET -7.70894 0.00000 0.00000
				CHANNELS 3 Xrotation Yrotation Zrotation
				JOINT RightForeArm
				{
					OFFSET -11.52135 0.00000 0.00000
					CHANNELS 3 Yrotation Zrotation Xrotation
					JOINT RightHand
					{
						OFFSET -10.17590 0.00000 0.00000
						CHANNELS 3 Xrotation Yrotation Zrotation
						End Site
						{
							OFFSET -3.93700 0.00000 0.00000
						}
						JOINT RightHandThumb1
						{
							OFFSET 0.00000 0.00000 0.00000
							CHANNELS 3 Xrotation Zrotation Yrotation
							End Site
							{
								OFFSET 0.00000 0.00000 3.93700
							}
						}
					}
				}
			}
		}
		JOINT LeftShoulder
		{
			OFFSET 0.00000 10.94176 0.00000
			CHANNELS 3 Xrotation Yrotation Zrotation
			JOINT LeftArm
			{
				OFFSET 7.70894 0.00000 0.00000
				CHANNELS 3 Xrotation Yrotation Zrotation
				JOINT LeftForeArm
				{
					OFFSET 11.52135 0.00000 0.00000
					CHANNELS 3 Yrotation Zrotation Xrotation
					JOINT LeftHand
					{
						OFFSET 10.17590 0.00000 0.00000
						CHANNELS 3 Xrotation Yrotation Zrotation
						End Site
						{
							OFFSET 3.93700 0.00000 0.00000
						}
						JOINT LeftHandThumb1
						{
							OFFSET 0.00000 0.00000 0.00000
							CHANNELS 3 Xrotation Zrotation Yrotation
							End Site
							{
								OFFSET 0.00000 0.00000 3.93700
							}
						}
					}
				}
			}
		}
		JOINT Head
		{
			OFFSET 0.00000 16.64604 0.00000
			CHANNELS 3 Xrotation Yrotation Zrotation
			End Site
			{
				OFFSET 0.00000 4.52755 0.00000
			}
		}
	}
}
MOTION
Frames: 7
Frame Time: 0.008333
 1.7257 37.0566 2.2427 -3.0511 -4.3570 1.5608 9.5681 -6.1651 -3.8724 -5.1427 -0.0000 -0.0000 -7.8031 -19.8046 8.9096 15.3308 0.0000 -0.0000 8.5975 4.3068 2.2670 -1.4507 0.0000 -0.0000 -5.4483 19.6519 -12.0558 10.1867 -0.0000 -0.0000 6.0327 1.1060 -0.7793 9.7998 -7.1461 -24.3233 -32.9859 -6.1432 28.6413 28.4899 0.0000 -16.9692 -0.1516 2.1829 3.9750 32.8623 0.0000 -24.3270 26.3070 29.0845 12.6651 -60.7871 -0.0127 -35.7084 -18.9420 0.0000 35.1862 4.2749 16.3701 -14.8541 33.1476 -0.0000 26.2537 -4.8777 10.4805 4.1332
 1.7246 37.0566 2.2419 -3.0518 -4.3415 1.5577 9.5804 -6.1062 -3.8667 -5.1551 -0.0000 -0.0000 -7.7962 -19.8692 8.9054 15.3124 0.0000 0.0000 8.5889 4.3530 2.2687 -1.4452 -0.0000 -0.0000 -5.4582 19.6096 -12.0246 10.2097 0.0000 -0.0000 5.9576 1.1636 -0.7564 9.7261 -6.9963 -24.3281 -33.4118 -6.2696 28.5929 29.4940 0.0000 -17.8817 -0.1487 2.3696 3.5928 32.8623 0.0000 -24.3270 26.5625 29.1201 12.2862 -60.5556 -0.4087 -36.1016 -19.5918 0.0000 34.7635 4.2115 16.4679 -14.5613 33.1476 -0.0000 26.2537 -4.7755 10.2527 4.1834
 1.7233 37.0567 2.2438 -3.0528 -4.3362 1.5592 9.5864 -6.0541 -3.8680 -5.1472 0.0000 0.0000 -7.7976 -19.8984 8.8506 15.2930 -0.0000 0.0000 8.5929 4.3794 2.2688 -1.4506 0.0000 0.0000 -5.4442 19.5794 -12.0189 10.1553 0.0000 -0.0000 5.8663 1.2802 -0.7395 9.7957 -6.9875 -24.3153 -33.9362 -6.2764 28.5685 30.4894 0.0000 -18.8398 -0.1481 2.7304 3.1050 32.8623 0.0000 -24.3270 26.7471 29.1247 11.9698 -60.2976 -0.8044 -36.5842 -20.1746 0.0000 34.2106 4.1315 16.4911 -14.2768 33.1476 -0.0000 26.2537 -4.6365 10.0350 4.1859
 1.7232 37.0568 2.2420 -3.0525 -4.3026 1.5666 9.5828 -6.0205 -3.8734 -5.1317 0.0000 -0.0000 -7.8188 -19.9484 8.8305 15.2801 0.0000 -0.0000 8.5764 4.3655 2.2655 -1.4337 0.0000 0.0000 -5.4462 19.5798 -12.0305 10.1791 0.0000 0.0000 5.7765 1.3890 -0.7293 9.6556 -6.8753 -24.2898 -34.3369 -6.3050 28.4743 31.4917 0.0000 -19.7714 -0.1412 2.9590 2.7336 32.8623 0.0000 -24.3270 26.7798 29.0331 11.7814 -59.7608 -1.1496 -37.0803 -20.8434 0.0000 33.6683 3.9837 16.6426 -13.6667 33.1476 -0.0000 26.2537 -4.4814 9.7751 4.1996
 1.7226 37.0576 2.2386 -3.0647 -4.2799 1.5596 9.5872 -5.9729 -3.8678 -5.1109 0.0000 0.0000 -7.8231 -20.0136 8.8436 15.3255 0.0000 0.0000 8.5678 4.3727 2.2757 -1.4140 -0.0000 -0.0000 -5.4538 19.5605 -12.0383 10.1975 -0.0000 -0.0000 5.7043 1.5155 -0.6969 9.5636 -6.7714 -24.2699 -34.8248 -6.3606 28.3750 32.5294 0.0000 -20.5024 -0.1459 3.3760 2.4762 32.8623 0.0000 -24.3270 26.8130 28.9090 11.6097 -59.1642 -1.4771 -37.6177 -21.5225 0.0000 33.1378 3.7855 16.9273 -12.8032 33.1476 -0.0000 26.2537 -4.3250 9.4962 4.2142
 1.7222 37.0572 2.2404 -3.0643 -4.2498 1.5569 9.5846 -5.9752 -3.8617 -5.0952 0.0000 0.0000 -7.8312 -20.0260 8.8081 15.1030 0.0000 -0.0000 8.5583 4.3890 2.2819 -1.4021 -0.0000 -0.0000 -5.4612 19.5342 -12.0392 10.1718 0.0000 -0.0000 5.5929 1.6041 -0.6715 9.5428 -6.7025 -24.2567 -35.4419 -6.3481 28.3248 33.5279 0.0000 -21.3829 -0.1297 3.7077 2.0052 32.8623 0.0000 -24.3270 26.9017 28.7895 11.4674 -58.5409 -1.6871 -38.1912 -22.2653 0.0000 32.7000 3.5148 16.8548 -11.9607 33.1476 -0.0000 26.2537 -4.1372 9.2792 4.2426
 1.7203 37.0570 2.2431 -3.0662 -4.2420 1.5513 9.5964 -5.9210 -3.8550 -5.0934 0.0000 -0.0000 -7.8422 -20.0628 8.8031 15.2685 0.0000 -0.0000 8.5641 4.4315 2.2911 -1.4080 -0.0000 -0.0000 -5.4576 19.4817 -12.0520 10.1778 0.0000 0.0000 5.4750 1.7068 -0.6393 9.4822 -6.6087 -24.2769 -36.0122 -6.3561 28.3013 34.5528 0.0000 -22.1581 -0.1245 4.2014 1.6987 32.8623 0.0000 -24.3270 27.1090 28.6910 11.2957 -57.8895 -1.8934 -38.8173 -23.1582 0.0000 32.0652 3.4531 16.9712 -11.6800 33.1476 -0.0000 26.2537 -3.9345 9.0361 4.2416
